<svg xmlns="http://www.w3.org/2000/svg" xmlns:xlink="http://www.w3.org/1999/xlink" width="500" zoomAndPan="magnify" viewBox="0 0 375 374.999991" height="500" preserveAspectRatio="xMidYMid meet" version="1.0"><defs><g/><clipPath id="dd812170dd"><path d="M 0 4.316406 L 375 4.316406 L 375 370.316406 L 0 370.316406 Z M 0 4.316406 " clip-rule="nonzero"/></clipPath><clipPath id="4ca44f08fc"><path d="M 187.5 4.316406 C 83.945312 4.316406 0 86.332031 0 187.5 C 0 288.667969 83.945312 370.679688 187.5 370.679688 C 291.054688 370.679688 375 288.667969 375 187.5 C 375 86.332031 291.054688 4.316406 187.5 4.316406 Z M 187.5 4.316406 " clip-rule="nonzero"/></clipPath><clipPath id="f44dd7dbd9"><path d="M 223.6875 163.859375 L 251.28125 163.859375 L 251.28125 191.453125 L 223.6875 191.453125 Z M 223.6875 163.859375 " clip-rule="nonzero"/></clipPath><clipPath id="da3feba06d"><path d="M 251.28125 177.65625 C 251.28125 170.039062 245.105469 163.859375 237.484375 163.859375 C 229.867188 163.859375 223.6875 170.039062 223.6875 177.65625 C 223.6875 185.277344 229.867188 191.453125 237.484375 191.453125 C 245.105469 191.453125 251.28125 185.277344 251.28125 177.65625 Z M 251.28125 177.65625 " clip-rule="nonzero"/></clipPath><clipPath id="ca22a1d031"><path d="M 187.492188 163.859375 L 215.085938 163.859375 L 215.085938 191.453125 L 187.492188 191.453125 Z M 187.492188 163.859375 " clip-rule="nonzero"/></clipPath><clipPath id="ee47b09c99"><path d="M 215.085938 177.65625 C 215.085938 170.039062 208.910156 163.859375 201.289062 163.859375 C 193.671875 163.859375 187.492188 170.039062 187.492188 177.65625 C 187.492188 185.277344 193.671875 191.453125 201.289062 191.453125 C 208.910156 191.453125 215.085938 185.277344 215.085938 177.65625 Z M 215.085938 177.65625 " clip-rule="nonzero"/></clipPath></defs><g clip-path="url(#dd812170dd)"><g clip-path="url(#4ca44f08fc)"><path fill="#d1d1d1" d="M 173.054688 12.375 C 170.65625 12.558594 168.269531 12.792969 165.886719 13.070312 L 164.148438 -1.828125 C 166.722656 -2.128906 169.304688 -2.378906 171.894531 -2.582031 Z M 158.730469 14.046875 C 156.363281 14.417969 154.011719 14.835938 151.664062 15.296875 L 148.765625 0.582031 C 151.300781 0.0820312 153.847656 -0.371094 156.40625 -0.769531 Z M 144.597656 16.835938 C 142.265625 17.394531 139.941406 17.996094 137.632812 18.644531 L 133.578125 4.203125 C 136.078125 3.5 138.589844 2.847656 141.117188 2.246094 Z M 130.742188 20.726562 C 128.453125 21.46875 126.179688 22.257812 123.925781 23.085938 L 118.738281 9.011719 C 121.179688 8.113281 123.640625 7.261719 126.117188 6.457031 Z M 117.238281 25.703125 C 115.011719 26.625 112.808594 27.589844 110.621094 28.601562 L 104.332031 14.980469 C 106.699219 13.890625 109.089844 12.84375 111.496094 11.847656 Z M 104.148438 31.746094 C 102.011719 32.839844 99.894531 33.972656 97.800781 35.152344 L 90.449219 22.074219 C 92.71875 20.800781 95.007812 19.570312 97.324219 18.386719 Z M 91.589844 38.804688 C 89.546875 40.0625 87.53125 41.363281 85.542969 42.699219 L 77.175781 30.25 C 79.328125 28.800781 81.515625 27.394531 83.726562 26.03125 Z M 79.640625 46.839844 C 77.703125 48.257812 75.796875 49.710938 73.917969 51.203125 L 64.585938 39.460938 C 66.617188 37.84375 68.683594 36.269531 70.78125 34.734375 Z M 68.367188 55.800781 C 66.550781 57.367188 64.765625 58.972656 63.011719 60.609375 L 52.765625 49.652344 C 54.667969 47.875 56.601562 46.140625 58.570312 44.441406 Z M 57.851562 65.628906 C 56.164062 67.339844 54.515625 69.082031 52.898438 70.855469 L 41.808594 60.757812 C 43.558594 58.835938 45.347656 56.945312 47.175781 55.09375 Z M 48.164062 76.273438 C 46.621094 78.113281 45.113281 79.980469 43.648438 81.878906 L 31.777344 72.714844 C 33.367188 70.65625 34.996094 68.628906 36.671875 66.632812 Z M 39.367188 87.664062 C 37.980469 89.621094 36.636719 91.605469 35.332031 93.617188 L 22.75 85.449219 C 24.164062 83.269531 25.625 81.113281 27.132812 78.988281 Z M 31.539062 99.730469 C 30.316406 101.792969 29.136719 103.882812 28.003906 105.992188 L 14.792969 98.890625 C 16.023438 96.597656 17.304688 94.328125 18.632812 92.085938 Z M 24.730469 112.390625 C 23.683594 114.550781 22.679688 116.730469 21.722656 118.933594 L 7.96875 112.949219 C 9.007812 110.558594 10.097656 108.191406 11.238281 105.839844 Z M 19 125.566406 C 18.136719 127.808594 17.320312 130.0625 16.550781 132.332031 L 2.34375 127.523438 C 3.179688 125.050781 4.070312 122.601562 5.007812 120.167969 Z M 14.390625 139.179688 C 13.71875 141.480469 13.097656 143.789062 12.523438 146.113281 L -2.039062 142.511719 C -1.414062 139.984375 -0.734375 137.46875 -0.00390625 134.96875 Z M 10.941406 153.140625 C 10.464844 155.480469 10.039062 157.828125 9.660156 160.1875 L -5.148438 157.820312 C -4.738281 155.253906 -4.277344 152.699219 -3.761719 150.15625 Z M 8.671875 167.328125 C 8.394531 169.699219 8.167969 172.078125 7.988281 174.464844 L -6.96875 173.339844 C -6.773438 170.746094 -6.527344 168.160156 -6.222656 165.582031 Z M 7.597656 181.640625 C 7.535156 183.589844 7.5 185.542969 7.5 187.5 L 7.507812 188.917969 L -7.492188 188.976562 L -7.5 187.5 C -7.5 185.375 -7.464844 183.253906 -7.394531 181.136719 Z M 7.714844 196.113281 C 7.832031 198.5 8 200.882812 8.214844 203.257812 L -6.722656 204.617188 C -6.957031 202.035156 -7.140625 199.449219 -7.269531 196.855469 Z M 9.015625 210.414062 C 9.335938 212.789062 9.699219 215.160156 10.117188 217.519531 L -4.65625 220.121094 C -5.109375 217.558594 -5.507812 214.980469 -5.851562 212.398438 Z M 11.507812 224.546875 C 12.023438 226.894531 12.589844 229.226562 13.203125 231.550781 L -1.296875 235.386719 C -1.964844 232.859375 -2.578125 230.320312 -3.140625 227.769531 Z M 15.183594 238.441406 C 15.890625 240.730469 16.648438 243.007812 17.457031 245.269531 L 3.328125 250.304688 C 2.453125 247.847656 1.625 245.371094 0.855469 242.878906 Z M 20.011719 251.984375 C 20.910156 254.203125 21.851562 256.402344 22.84375 258.585938 L 9.183594 264.785156 C 8.109375 262.414062 7.082031 260.019531 6.105469 257.609375 Z M 25.953125 265.074219 C 27.03125 267.207031 28.15625 269.324219 29.324219 271.414062 L 16.222656 278.726562 C 14.957031 276.453125 13.734375 274.15625 12.5625 271.835938 Z M 32.960938 277.625 C 34.210938 279.667969 35.507812 281.6875 36.847656 283.679688 L 24.394531 292.039062 C 22.941406 289.878906 21.535156 287.6875 20.175781 285.472656 Z M 40.976562 289.566406 C 42.394531 291.5 43.851562 293.40625 45.347656 295.285156 L 33.621094 304.632812 C 31.996094 302.597656 30.414062 300.53125 28.878906 298.433594 Z M 49.949219 300.820312 C 51.519531 302.632812 53.125 304.414062 54.769531 306.164062 L 43.832031 316.433594 C 42.050781 314.535156 40.308594 312.601562 38.609375 310.636719 Z M 59.804688 311.316406 C 61.515625 312.996094 63.257812 314.640625 65.035156 316.253906 L 54.960938 327.367188 C 53.035156 325.621094 51.144531 323.835938 49.292969 322.015625 Z M 70.46875 320.984375 C 72.308594 322.523438 74.183594 324.023438 76.085938 325.488281 L 66.929688 337.375 C 64.871094 335.785156 62.84375 334.160156 60.847656 332.492188 Z M 81.875 329.769531 C 83.835938 331.160156 85.824219 332.507812 87.839844 333.820312 L 79.664062 346.394531 C 77.480469 344.976562 75.328125 343.511719 73.203125 342.007812 Z M 93.945312 337.617188 C 96.011719 338.847656 98.105469 340.035156 100.21875 341.183594 L 93.066406 354.367188 C 90.777344 353.128906 88.515625 351.839844 86.277344 350.507812 Z M 106.609375 344.484375 C 108.761719 345.546875 110.9375 346.5625 113.136719 347.535156 L 107.054688 361.25 C 104.675781 360.195312 102.320312 359.09375 99.988281 357.945312 Z M 119.78125 350.324219 C 122.007812 351.210938 124.253906 352.050781 126.515625 352.84375 L 121.542969 366.996094 C 119.09375 366.132812 116.664062 365.226562 114.25 364.269531 Z M 133.382812 355.105469 C 135.667969 355.804688 137.96875 356.464844 140.285156 357.078125 L 136.449219 371.578125 C 133.941406 370.914062 131.453125 370.203125 128.976562 369.441406 Z M 147.292969 358.78125 C 149.636719 359.304688 151.992188 359.78125 154.355469 360.210938 L 151.675781 374.96875 C 149.117188 374.503906 146.570312 373.988281 144.03125 373.425781 Z M 161.457031 361.355469 C 163.84375 361.695312 166.242188 361.984375 168.648438 362.230469 L 167.132812 377.152344 C 164.53125 376.886719 161.941406 376.574219 159.355469 376.207031 Z M 175.792969 362.816406 C 178.191406 362.964844 180.597656 363.070312 183.007812 363.128906 L 182.648438 378.121094 C 180.046875 378.0625 177.449219 377.949219 174.855469 377.785156 Z M 190.285156 363.160156 C 192.699219 363.125 195.113281 363.042969 197.519531 362.914062 L 198.320312 377.890625 C 195.71875 378.03125 193.117188 378.121094 190.507812 378.160156 Z M 204.675781 362.390625 C 207.078125 362.171875 209.472656 361.902344 211.863281 361.585938 L 213.824219 376.457031 C 211.242188 376.796875 208.652344 377.089844 206.054688 377.328125 Z M 218.984375 360.503906 C 221.347656 360.097656 223.703125 359.644531 226.042969 359.144531 L 229.167969 373.816406 C 226.632812 374.355469 224.085938 374.847656 221.527344 375.285156 Z M 233.078125 357.5 C 235.398438 356.910156 237.707031 356.273438 240 355.59375 L 244.273438 369.972656 C 241.789062 370.707031 239.292969 371.398438 236.78125 372.039062 Z M 246.878906 353.398438 C 249.152344 352.625 251.410156 351.804688 253.648438 350.941406 L 259.046875 364.933594 C 256.625 365.871094 254.179688 366.757812 251.722656 367.597656 Z M 260.308594 348.214844 C 262.515625 347.261719 264.703125 346.265625 266.871094 345.222656 L 273.367188 358.746094 C 271.019531 359.871094 268.652344 360.953125 266.261719 361.984375 Z M 273.285156 341.984375 C 275.414062 340.859375 277.515625 339.6875 279.59375 338.476562 L 287.140625 351.441406 C 284.890625 352.75 282.613281 354.015625 280.3125 355.238281 Z M 285.738281 334.734375 C 287.765625 333.441406 289.765625 332.113281 291.738281 330.742188 L 300.292969 343.0625 C 298.15625 344.546875 295.992188 345.988281 293.796875 347.382812 Z M 297.570312 326.515625 C 299.484375 325.070312 301.371094 323.585938 303.226562 322.066406 L 312.738281 333.664062 C 310.726562 335.308594 308.6875 336.917969 306.613281 338.484375 Z M 308.703125 317.382812 C 310.496094 315.789062 312.257812 314.160156 313.984375 312.496094 L 324.394531 323.292969 C 322.523438 325.097656 320.617188 326.863281 318.671875 328.59375 Z M 319.066406 307.394531 C 320.726562 305.65625 322.351562 303.890625 323.9375 302.09375 L 335.183594 312.019531 C 333.464844 313.96875 331.703125 315.882812 329.90625 317.765625 Z M 328.589844 296.601562 C 330.105469 294.738281 331.578125 292.847656 333.015625 290.925781 L 345.03125 299.90625 C 343.472656 301.992188 341.871094 304.042969 340.230469 306.0625 Z M 337.207031 285.074219 C 338.5625 283.097656 339.875 281.09375 341.148438 279.0625 L 353.859375 287.03125 C 352.476562 289.234375 351.050781 291.410156 349.578125 293.558594 Z M 344.84375 272.890625 C 346.035156 270.808594 347.179688 268.703125 348.277344 266.578125 L 361.601562 273.46875 C 360.40625 275.78125 359.164062 278.066406 357.871094 280.328125 Z M 351.449219 260.125 C 352.460938 257.949219 353.429688 255.753906 354.347656 253.542969 L 368.199219 259.304688 C 367.199219 261.707031 366.148438 264.09375 365.046875 266.457031 Z M 356.96875 246.859375 C 357.796875 244.601562 358.578125 242.332031 359.3125 240.046875 L 373.59375 244.628906 C 372.796875 247.113281 371.949219 249.582031 371.046875 252.035156 Z M 361.355469 233.179688 C 361.992188 230.867188 362.578125 228.542969 363.117188 226.203125 L 377.734375 229.570312 C 377.148438 232.113281 376.511719 234.644531 375.820312 237.160156 Z M 364.582031 219.171875 C 365.019531 216.820312 365.410156 214.460938 365.75 212.09375 L 380.597656 214.222656 C 380.230469 216.800781 379.804688 219.367188 379.328125 221.925781 Z M 366.625 204.925781 C 366.863281 202.558594 367.054688 200.183594 367.195312 197.800781 L 382.167969 198.6875 C 382.015625 201.273438 381.808594 203.855469 381.550781 206.433594 Z M 367.472656 190.660156 L 367.5 187.433594 C 367.5 186.089844 367.484375 184.722656 367.449219 183.335938 L 382.445312 182.980469 C 382.480469 184.484375 382.5 186.015625 382.5 187.566406 L 382.46875 190.792969 Z M 367.128906 176.144531 C 366.972656 173.761719 366.769531 171.386719 366.515625 169.019531 L 381.429688 167.421875 C 381.707031 169.996094 381.929688 172.578125 382.097656 175.164062 Z M 365.597656 161.855469 C 365.242188 159.492188 364.839844 157.136719 364.386719 154.789062 L 379.113281 151.949219 C 379.605469 154.5 380.046875 157.0625 380.429688 159.636719 Z M 362.875 147.761719 C 362.324219 145.425781 361.722656 143.105469 361.074219 140.800781 L 375.511719 136.730469 C 376.21875 139.242188 376.871094 141.765625 377.472656 144.300781 Z M 358.984375 133.941406 C 358.238281 131.660156 357.441406 129.394531 356.597656 127.148438 L 370.644531 121.882812 C 371.5625 124.328125 372.425781 126.789062 373.238281 129.269531 Z M 353.941406 120.480469 C 353.007812 118.273438 352.027344 116.085938 351 113.914062 L 364.558594 107.496094 C 365.671875 109.855469 366.738281 112.234375 367.753906 114.636719 Z M 347.789062 107.484375 C 346.675781 105.363281 345.519531 103.265625 344.316406 101.1875 L 357.296875 93.671875 C 358.601562 95.925781 359.859375 98.203125 361.070312 100.507812 Z M 340.582031 95.039062 C 339.296875 93.015625 337.972656 91.019531 336.601562 89.050781 L 348.921875 80.492188 C 350.410156 82.632812 351.847656 84.796875 353.242188 86.992188 Z M 332.378906 83.222656 C 330.929688 81.3125 329.445312 79.429688 327.917969 77.574219 L 339.5 68.042969 C 341.15625 70.054688 342.769531 72.097656 344.339844 74.171875 Z M 323.234375 72.113281 C 321.636719 70.324219 320.003906 68.566406 318.332031 66.839844 L 329.105469 56.40625 C 330.917969 58.277344 332.6875 60.179688 334.421875 62.121094 Z M 313.21875 61.769531 C 311.480469 60.117188 309.710938 58.496094 307.910156 56.910156 L 317.8125 45.644531 C 319.765625 47.363281 321.683594 49.117188 323.566406 50.910156 Z M 302.402344 52.261719 C 300.539062 50.753906 298.644531 49.28125 296.722656 47.84375 L 305.691406 35.824219 C 307.777344 37.378906 309.828125 38.972656 311.84375 40.609375 Z M 290.863281 43.652344 C 288.882812 42.292969 286.878906 40.976562 284.84375 39.699219 L 292.828125 27 C 295.03125 28.382812 297.203125 29.8125 299.347656 31.28125 Z M 278.671875 35.988281 C 276.589844 34.789062 274.480469 33.632812 272.347656 32.519531 L 279.296875 19.226562 C 281.605469 20.433594 283.890625 21.683594 286.144531 22.980469 Z M 265.914062 29.316406 C 263.738281 28.289062 261.542969 27.304688 259.332031 26.363281 L 265.199219 12.558594 C 267.597656 13.578125 269.972656 14.644531 272.328125 15.757812 Z M 252.65625 23.679688 C 250.414062 22.828125 248.152344 22.019531 245.871094 21.257812 L 250.628906 7.035156 C 253.097656 7.859375 255.546875 8.730469 257.976562 9.652344 Z M 238.988281 19.109375 C 236.6875 18.4375 234.375 17.816406 232.046875 17.238281 L 235.664062 2.679688 C 238.183594 3.304688 240.6875 3.980469 243.175781 4.703125 Z M 225 15.632812 C 222.65625 15.148438 220.304688 14.710938 217.941406 14.316406 L 220.398438 -0.480469 C 222.957031 -0.0546875 225.5 0.421875 228.035156 0.945312 Z M 210.804688 13.277344 C 208.417969 12.976562 206.023438 12.71875 203.625 12.511719 L 204.917969 -2.429688 C 207.511719 -2.207031 210.101562 -1.933594 212.679688 -1.605469 Z M 196.457031 12.03125 C 194.046875 11.914062 191.632812 11.847656 189.214844 11.824219 L 189.347656 -3.175781 C 191.960938 -3.148438 194.570312 -3.074219 197.171875 -2.953125 Z M 187.5 11.816406 C 185.074219 11.816406 182.65625 11.863281 180.238281 11.957031 L 179.660156 -3.03125 C 182.269531 -3.132812 184.882812 -3.183594 187.5 -3.183594 Z M 187.5 11.816406 " fill-opacity="1" fill-rule="nonzero"/></g></g><g fill="#000000" fill-opacity="1"><g transform="translate(95.1395, 149.022958)"><g><path d="M 0 17.578125 L 188.328125 17.578125 L 188.328125 92.078125 C 188.328125 105.972656 185.851562 118.5 180.90625 129.65625 C 175.957031 140.8125 168.726562 149.644531 159.21875 156.15625 C 149.707031 162.664062 138.140625 165.921875 124.515625 165.921875 C 112.097656 165.921875 101.4375 163.1875 92.53125 157.71875 C 83.632812 152.25 76.796875 144.476562 72.015625 134.40625 C 67.242188 124.332031 64.859375 112.394531 64.859375 98.59375 L 64.859375 68.25 L 0 68.25 Z M 102.625 67.71875 L 102.625 97.03125 C 102.625 103.457031 105.1875 108.796875 110.3125 113.046875 C 115.4375 117.304688 121.035156 119.4375 127.109375 119.4375 C 133.628906 119.4375 139.210938 117.113281 143.859375 112.46875 C 148.503906 107.820312 150.828125 102.675781 150.828125 97.03125 L 150.828125 67.71875 Z M 102.625 67.71875 "/></g></g></g><g clip-path="url(#f44dd7dbd9)"><g clip-path="url(#da3feba06d)"><path fill="#ffffff" d="M 251.28125 163.859375 L 251.28125 191.453125 L 223.6875 191.453125 L 223.6875 163.859375 Z M 251.28125 163.859375 " fill-opacity="1" fill-rule="nonzero"/></g></g><g clip-path="url(#ca22a1d031)"><g clip-path="url(#ee47b09c99)"><path fill="#ffffff" d="M 215.085938 163.859375 L 215.085938 191.453125 L 187.492188 191.453125 L 187.492188 163.859375 Z M 215.085938 163.859375 " fill-opacity="1" fill-rule="nonzero"/></g></g><g fill="#a6a6a6" fill-opacity="1"><g transform="translate(95.139675, 85.087845)"><g><path d="M 59.65625 93.78125 C 45.757812 93.78125 34.207031 92.300781 25 89.34375 C 15.800781 86.394531 8.898438 80.90625 4.296875 72.875 C -0.304688 64.84375 -2.609375 53.226562 -2.609375 38.03125 C -2.609375 32.726562 -2.367188 26.691406 -1.890625 19.921875 C -1.410156 13.148438 -0.78125 7.8125 0 3.90625 L 45.578125 3.90625 C 45.316406 6.25 45.035156 8.941406 44.734375 11.984375 C 44.429688 15.023438 44.28125 17.890625 44.28125 20.578125 C 44.28125 29.609375 46.582031 35.597656 51.1875 38.546875 C 55.789062 41.503906 62.953125 42.984375 72.671875 42.984375 L 188.328125 42.984375 L 188.328125 93.78125 Z M 59.65625 93.78125 "/></g></g></g></svg>